<?xml version="1.0" encoding="utf-8"?>
<!-- Generator: Adobe Illustrator 16.0.4, SVG Export Plug-In . SVG Version: 6.00 Build 0)  -->
<!DOCTYPE svg PUBLIC "-//W3C//DTD SVG 1.1//EN" "http://www.w3.org/Graphics/SVG/1.1/DTD/svg11.dtd">
<svg version="1.1" id="Layer_1" xmlns="http://www.w3.org/2000/svg" xmlns:xlink="http://www.w3.org/1999/xlink" x="0px" y="0px"
	 width="380.629px" height="65.271px" viewBox="0 0 380.629 65.271" enable-background="new 0 0 380.629 65.271"
	 xml:space="preserve">
<g>
	<defs>
		<rect id="SVGID_1_" x="-73.35" y="-82.86" width="531.091" height="233.594"/>
	</defs>
	<clipPath id="SVGID_2_">
		<use xlink:href="#SVGID_1_"  overflow="visible"/>
	</clipPath>
	<path clip-path="url(#SVGID_2_)" fill="#575756" d="M36.11,2.505c-1.763-1.643-3.725-2.479-5.833-2.479H8.093L7.663,0L7.494,0.104
		H7.061L6.88,0.115C5.533,0.294,4.333,0.729,3.306,1.416C2.96,1.646,2.633,1.905,2.34,2.182c-0.258,0.24-0.501,0.501-0.766,0.839
		L1.106,3.686C0.367,4.876,0.004,6.234,0,7.849V64.43h16.541V51.349h13.736c2.108,0,4.07-0.832,5.828-2.478l18.89-17.605
		c1.746-1.627,2.629-3.481,2.629-5.517c0-2.077-0.883-3.956-2.627-5.58L36.11,2.505z M16.541,15.673h9.297l0.09,0.008
		c0.128,0.013,0.232,0.026,0.31,0.039l0.681,0.111l10.525,9.915l-10.467,9.755l-0.612,0.128c-0.085,0.017-0.204,0.039-0.36,0.059
		l-9.464,0.017V15.673z"/>
	<polygon clip-path="url(#SVGID_2_)" fill="#575756" points="98.538,0.774 98.538,25.254 76.918,25.254 76.918,0.774 60.38,0.774 
		60.38,64.321 76.918,64.321 76.918,40.902 98.538,40.902 98.538,64.321 115.071,64.321 115.071,0.774 	"/>
	<path clip-path="url(#SVGID_2_)" fill="#AECD5E" d="M167.739,34.464h0.057c1.782,0,3.253-0.566,4.367-1.676
		c1.114-1.114,1.678-2.578,1.678-4.359c0-1.776-0.561-3.245-1.675-4.358c-1.109-1.114-2.577-1.679-4.361-1.679h-3.63
		c-1.54,0-2.981,0.659-4.284,1.959l-13.767,13.722h-7.458V22.41v-0.037h-12.073v0.037v36.826c0,1.787,0.565,3.25,1.675,4.363
		c1.111,1.109,2.578,1.672,4.361,1.672c1.785,0,3.246-0.562,4.357-1.672c1.113-1.113,1.68-2.577,1.68-4.363v-9.84h7.309
		l13.916,13.918c1.3,1.3,2.744,1.957,4.284,1.957h3.63c1.784,0,3.252-0.562,4.361-1.672c1.114-1.113,1.675-2.583,1.675-4.363
		c0-1.779-0.561-3.242-1.678-4.357c-1.114-1.111-2.585-1.672-4.365-1.672h-0.059c-0.688-0.06-1.192-0.242-1.501-0.541l-8.814-8.886
		l8.773-8.748C166.558,34.707,167.06,34.518,167.739,34.464"/>
	<path clip-path="url(#SVGID_2_)" fill="#AECD5E" d="M320.929,6.624c-1.775,0-3.247,0.565-4.357,1.677
		c-1.109,1.112-1.673,2.579-1.673,4.362v9.153h-13.735c-1.547,0-2.984,0.661-4.287,1.957l-15.247,15.202
		c-1.271,1.266-1.909,2.686-1.909,4.23c0,1.579,0.639,3.02,1.909,4.283l15.247,15.252c1.303,1.298,2.74,1.957,4.287,1.957h1.141
		c0.021,0.001,0.032,0.004,0.053,0.004h15.762c0.077,0,0.147-0.021,0.224-0.023h8.624V12.663c0-1.786-0.563-3.25-1.676-4.362
		C324.18,7.188,322.715,6.624,320.929,6.624 M303.186,34.455c0.36-0.322,0.861-0.51,1.537-0.574h10.176v18.844h-8.91
		c-0.386-0.062-0.785-0.1-1.206-0.1h-0.06c-0.684-0.053-1.193-0.238-1.501-0.542l-8.812-8.878L303.186,34.455z"/>
	<path clip-path="url(#SVGID_2_)" fill="#AECD5E" d="M213.366,22.386h-22.044c-7.086,0-12.884,5.797-12.884,12.884v16.569
		c0,7.086,5.798,12.884,12.884,12.884h22.044c7.086,0,12.884-5.798,12.884-12.884V35.27
		C226.25,28.183,220.452,22.386,213.366,22.386 M214.766,51.839c0,0.746-0.654,1.399-1.4,1.399h-22.044
		c-0.746,0-1.4-0.653-1.4-1.399V35.27c0-0.746,0.654-1.4,1.4-1.4h22.044c0.746,0,1.4,0.654,1.4,1.4V51.839z"/>
	<path clip-path="url(#SVGID_2_)" fill="#AECD5E" d="M367.746,22.386h-22.044c-7.086,0-12.885,5.797-12.885,12.884v16.569
		c0,7.086,5.799,12.884,12.885,12.884h22.044c7.086,0,12.884-5.798,12.884-12.884V35.27
		C380.629,28.183,374.832,22.386,367.746,22.386 M369.145,51.839c0,0.746-0.653,1.399-1.399,1.399h-22.044
		c-0.746,0-1.4-0.653-1.4-1.399V35.27c0-0.746,0.654-1.4,1.4-1.4h22.044c0.746,0,1.399,0.654,1.399,1.4V51.839z"/>
	<path clip-path="url(#SVGID_2_)" fill="#AECD5E" d="M272.096,23.272c-1.784-1.095-4.013-1.183-5.88-0.231l-21.895,11.151v-6.332
		c0-1.786-0.566-3.25-1.676-4.363c-1.111-1.109-2.578-1.672-4.36-1.672c-1.786,0-3.246,0.563-4.357,1.672
		c-1.112,1.113-1.68,2.578-1.68,4.363v36.826v0.037h12.073v-0.037V47.709l18.605-9.477v26.125h12.044v-35.95
		C274.971,26.312,273.882,24.368,272.096,23.272"/>
</g>
</svg>
